<mxfile host="app.diagrams.net" agent="Mozilla/5.0 (Windows NT 10.0; Win64; x64) AppleWebKit/537.36 (KHTML, like Gecko) Chrome/134.0.0.0 Safari/537.36" version="26.1.0">
  <diagram name="第 1 页" id="uA6FYMQUmwczRBzpaJXu">
    <mxGraphModel dx="1430" dy="763" grid="1" gridSize="10" guides="1" tooltips="1" connect="1" arrows="1" fold="1" page="0" pageScale="1" pageWidth="827" pageHeight="1169" math="0" shadow="0">
      <root>
        <mxCell id="0" />
        <mxCell id="1" parent="0" />
        <mxCell id="WoOhSI2GlwK8Gt25z4fX-158" value="" style="rounded=0;whiteSpace=wrap;html=1;labelBackgroundColor=none;" parent="1" vertex="1">
          <mxGeometry x="440" y="120" width="640" height="560" as="geometry" />
        </mxCell>
        <mxCell id="WoOhSI2GlwK8Gt25z4fX-159" value="Header&amp;nbsp;" style="rounded=0;whiteSpace=wrap;html=1;labelBackgroundColor=none;fillColor=#dae8fc;strokeColor=#6c8ebf;" parent="1" vertex="1">
          <mxGeometry x="440" y="120" width="640" height="50" as="geometry" />
        </mxCell>
        <mxCell id="WoOhSI2GlwK8Gt25z4fX-160" value="logo" style="text;strokeColor=none;fillColor=none;html=1;align=center;verticalAlign=middle;whiteSpace=wrap;rounded=0;fontSize=16;labelBackgroundColor=none;" parent="1" vertex="1">
          <mxGeometry x="440" y="130" width="60" height="30" as="geometry" />
        </mxCell>
        <mxCell id="WoOhSI2GlwK8Gt25z4fX-161" value="" style="rounded=0;whiteSpace=wrap;html=1;labelBackgroundColor=none;fillColor=#fff2cc;strokeColor=#d6b656;" parent="1" vertex="1">
          <mxGeometry x="440" y="170" width="120" height="510" as="geometry" />
        </mxCell>
        <mxCell id="WoOhSI2GlwK8Gt25z4fX-162" value="水族箱1&lt;div&gt;&lt;font style=&quot;font-size: 11px;&quot;&gt;&lt;span style=&quot;white-space: pre;&quot;&gt;&#x9;&lt;/span&gt;顯示最後聊天時間&lt;/font&gt;&lt;/div&gt;&lt;div&gt;&lt;br&gt;&lt;div&gt;水族箱2&lt;/div&gt;&lt;div&gt;&lt;span style=&quot;font-size: 11px; background-color: transparent; color: light-dark(rgb(0, 0, 0), rgb(255, 255, 255));&quot;&gt;&amp;nbsp; &amp;nbsp; &amp;nbsp; &amp;nbsp; 顯示最後聊天時間&lt;/span&gt;&lt;br&gt;&lt;/div&gt;&lt;div&gt;&lt;br&gt;&lt;/div&gt;&lt;div&gt;水族箱3&lt;/div&gt;&lt;/div&gt;&lt;div&gt;&lt;span style=&quot;font-size: 11px;&quot;&gt;&amp;nbsp; &amp;nbsp; &amp;nbsp; &amp;nbsp; 顯示最後聊天時間&lt;/span&gt;&lt;/div&gt;&lt;div&gt;&lt;br&gt;&lt;/div&gt;" style="text;strokeColor=none;fillColor=none;html=1;align=left;verticalAlign=middle;whiteSpace=wrap;rounded=0;fontSize=16;labelBackgroundColor=none;" parent="1" vertex="1">
          <mxGeometry x="440" y="177.5" width="130" height="170" as="geometry" />
        </mxCell>
        <mxCell id="WoOhSI2GlwK8Gt25z4fX-170" value="" style="rounded=0;whiteSpace=wrap;html=1;labelBackgroundColor=none;fillColor=#d0cee2;strokeColor=#56517e;glass=0;opacity=90;shadow=0;" parent="1" vertex="1">
          <mxGeometry x="560" y="170" width="520" height="430" as="geometry" />
        </mxCell>
        <mxCell id="WoOhSI2GlwK8Gt25z4fX-173" value="" style="rounded=1;whiteSpace=wrap;html=1;arcSize=37;labelBackgroundColor=none;fillColor=#f5f5f5;strokeColor=#666666;fontColor=#333333;glass=0;" parent="1" vertex="1">
          <mxGeometry x="880" y="210" width="180" height="100" as="geometry" />
        </mxCell>
        <mxCell id="WoOhSI2GlwK8Gt25z4fX-174" value="" style="ellipse;whiteSpace=wrap;html=1;labelBackgroundColor=none;shadow=0;" parent="1" vertex="1">
          <mxGeometry x="1050" y="310" width="20" height="20" as="geometry" />
        </mxCell>
        <mxCell id="WoOhSI2GlwK8Gt25z4fX-175" value="訊息發送時間" style="text;strokeColor=none;fillColor=none;html=1;align=center;verticalAlign=middle;whiteSpace=wrap;rounded=0;fontSize=16;labelBackgroundColor=none;" parent="1" vertex="1">
          <mxGeometry x="920" y="322.5" width="100" height="25" as="geometry" />
        </mxCell>
        <mxCell id="WoOhSI2GlwK8Gt25z4fX-181" value="AI管家(使用模型名稱）" style="rounded=0;whiteSpace=wrap;html=1;labelBackgroundColor=none;" parent="1" vertex="1">
          <mxGeometry x="560" y="170" width="520" height="30" as="geometry" />
        </mxCell>
        <mxCell id="WoOhSI2GlwK8Gt25z4fX-182" value="🔍" style="text;strokeColor=none;fillColor=none;html=1;align=center;verticalAlign=middle;whiteSpace=wrap;rounded=0;fontSize=16;labelBackgroundColor=none;" parent="1" vertex="1">
          <mxGeometry x="980" y="175" width="20" height="20" as="geometry" />
        </mxCell>
        <mxCell id="WoOhSI2GlwK8Gt25z4fX-177" value="" style="edgeStyle=none;orthogonalLoop=1;jettySize=auto;html=1;rounded=0;fontSize=12;startSize=8;endSize=8;curved=1;dashed=1;startArrow=none;startFill=0;endArrow=none;labelBackgroundColor=none;fontColor=default;entryX=0.524;entryY=0.985;entryDx=0;entryDy=0;entryPerimeter=0;" parent="1" source="WoOhSI2GlwK8Gt25z4fX-182" edge="1" target="yQp7Xc1R5j3axnno5k3c-2">
          <mxGeometry width="140" relative="1" as="geometry">
            <mxPoint x="1020" y="190.00036144578317" as="sourcePoint" />
            <mxPoint x="1040" y="90" as="targetPoint" />
            <Array as="points" />
          </mxGeometry>
        </mxCell>
        <mxCell id="WoOhSI2GlwK8Gt25z4fX-184" value="⚙️" style="text;strokeColor=none;fillColor=none;html=1;align=center;verticalAlign=middle;whiteSpace=wrap;rounded=0;fontSize=16;labelBackgroundColor=none;" parent="1" vertex="1">
          <mxGeometry x="1030" y="175" width="20" height="20" as="geometry" />
        </mxCell>
        <mxCell id="WoOhSI2GlwK8Gt25z4fX-185" value="&lt;font style=&quot;font-size: 12px;&quot;&gt;進入Settings頁面&lt;/font&gt;" style="text;strokeColor=none;fillColor=none;html=1;align=center;verticalAlign=middle;whiteSpace=wrap;rounded=0;fontSize=16;labelBackgroundColor=none;" parent="1" vertex="1">
          <mxGeometry x="1080" y="100" width="100" height="20" as="geometry" />
        </mxCell>
        <mxCell id="WoOhSI2GlwK8Gt25z4fX-178" value="" style="edgeStyle=none;orthogonalLoop=1;jettySize=auto;html=1;rounded=0;fontSize=12;startSize=8;endSize=8;curved=1;dashed=1;startArrow=none;startFill=0;endArrow=none;labelBackgroundColor=none;fontColor=default;" parent="1" source="WoOhSI2GlwK8Gt25z4fX-184" target="WoOhSI2GlwK8Gt25z4fX-185" edge="1">
          <mxGeometry width="140" relative="1" as="geometry">
            <mxPoint x="1034" y="190" as="sourcePoint" />
            <mxPoint x="1100" y="224" as="targetPoint" />
            <Array as="points" />
          </mxGeometry>
        </mxCell>
        <mxCell id="WoOhSI2GlwK8Gt25z4fX-187" value="" style="ellipse;whiteSpace=wrap;html=1;labelBackgroundColor=none;" parent="1" vertex="1">
          <mxGeometry x="570" y="360" width="20" height="20" as="geometry" />
        </mxCell>
        <mxCell id="WoOhSI2GlwK8Gt25z4fX-191" value="" style="rounded=0;whiteSpace=wrap;html=1;fillColor=none;dashed=1;fillStyle=auto;strokeWidth=2;labelBackgroundColor=none;strokeColor=#0e8088;" parent="1" vertex="1">
          <mxGeometry x="440" y="170" width="120" height="50" as="geometry" />
        </mxCell>
        <mxCell id="WoOhSI2GlwK8Gt25z4fX-192" value="將目前所選擇的水族箱框起來" style="text;strokeColor=none;fillColor=none;html=1;align=center;verticalAlign=middle;whiteSpace=wrap;rounded=0;fontSize=16;labelBackgroundColor=none;" parent="1" vertex="1">
          <mxGeometry x="230" y="110" width="210" height="30" as="geometry" />
        </mxCell>
        <mxCell id="WoOhSI2GlwK8Gt25z4fX-193" value="" style="edgeStyle=none;orthogonalLoop=1;jettySize=auto;html=1;rounded=0;fontSize=12;startSize=8;endSize=8;curved=1;dashed=1;startArrow=none;startFill=0;endArrow=none;labelBackgroundColor=none;fontColor=default;" parent="1" source="WoOhSI2GlwK8Gt25z4fX-192" target="WoOhSI2GlwK8Gt25z4fX-191" edge="1">
          <mxGeometry width="140" relative="1" as="geometry">
            <mxPoint x="340" y="195" as="sourcePoint" />
            <mxPoint x="406" y="229" as="targetPoint" />
            <Array as="points" />
          </mxGeometry>
        </mxCell>
        <mxCell id="WoOhSI2GlwK8Gt25z4fX-195" value="送出" style="text;html=1;align=center;verticalAlign=middle;whiteSpace=wrap;rounded=1;fontSize=16;labelBackgroundColor=none;" parent="1" vertex="1">
          <mxGeometry x="1000" y="630" width="60" height="30" as="geometry" />
        </mxCell>
        <mxCell id="WoOhSI2GlwK8Gt25z4fX-196" value="請輸入訊息…" style="text;html=1;align=center;verticalAlign=middle;whiteSpace=wrap;rounded=0;fontSize=16;opacity=60;glass=0;labelBackgroundColor=none;fontColor=#A3A3A3;" parent="1" vertex="1">
          <mxGeometry x="580" y="630" width="110" height="30" as="geometry" />
        </mxCell>
        <mxCell id="WoOhSI2GlwK8Gt25z4fX-198" value="+" style="ellipse;whiteSpace=wrap;html=1;fontSize=29;fontFamily=Helvetica;verticalAlign=middle;labelPosition=center;verticalLabelPosition=middle;align=center;" parent="1" vertex="1">
          <mxGeometry x="487.5" y="347.5" width="25" height="25" as="geometry" />
        </mxCell>
        <mxCell id="WoOhSI2GlwK8Gt25z4fX-199" value="" style="edgeStyle=none;orthogonalLoop=1;jettySize=auto;html=1;rounded=0;fontSize=12;startSize=8;endSize=8;curved=1;dashed=1;startArrow=none;startFill=0;endArrow=none;labelBackgroundColor=none;fontColor=default;" parent="1" source="WoOhSI2GlwK8Gt25z4fX-200" target="WoOhSI2GlwK8Gt25z4fX-198" edge="1">
          <mxGeometry width="140" relative="1" as="geometry">
            <mxPoint x="360" y="250" as="sourcePoint" />
            <mxPoint x="425" y="290" as="targetPoint" />
            <Array as="points" />
          </mxGeometry>
        </mxCell>
        <mxCell id="WoOhSI2GlwK8Gt25z4fX-200" value="點按跳轉&lt;font style=&quot;color: light-dark(rgb(255, 0, 0), rgb(237, 237, 237));&quot;&gt;新增水族箱頁面&lt;/font&gt;" style="text;strokeColor=none;fillColor=none;html=1;align=center;verticalAlign=middle;whiteSpace=wrap;rounded=0;fontSize=16;" parent="1" vertex="1">
          <mxGeometry x="230" y="280" width="180" height="30" as="geometry" />
        </mxCell>
        <mxCell id="yQp7Xc1R5j3axnno5k3c-2" value="&lt;span style=&quot;text-wrap-mode: nowrap;&quot;&gt;查詢圖案 輸入想查詢的訊息就可以跳轉到該畫面&lt;/span&gt;" style="text;html=1;align=center;verticalAlign=middle;whiteSpace=wrap;rounded=0;" vertex="1" parent="1">
          <mxGeometry x="970" y="80" width="230" height="20" as="geometry" />
        </mxCell>
        <mxCell id="yQp7Xc1R5j3axnno5k3c-3" value="" style="rounded=0;whiteSpace=wrap;html=1;dashed=1;dashPattern=8 8;fillColor=#d0cee2;strokeColor=#56517e;" vertex="1" parent="1">
          <mxGeometry x="625" y="360" width="275" height="120" as="geometry" />
        </mxCell>
        <mxCell id="yQp7Xc1R5j3axnno5k3c-4" value="AI回覆" style="text;html=1;align=center;verticalAlign=middle;whiteSpace=wrap;rounded=0;" vertex="1" parent="1">
          <mxGeometry x="625" y="360" width="45" height="20" as="geometry" />
        </mxCell>
      </root>
    </mxGraphModel>
  </diagram>
</mxfile>
